<svg width="49" height="71" viewBox="0 0 49 71" fill="none" xmlns="http://www.w3.org/2000/svg">
<path d="M1.33325 23.6667C1.33325 10.8933 11.7265 0.5 24.5 0.5C37.2734 0.5 47.6667 10.8933 47.6667 23.6666C47.6667 27.489 46.7139 31.2794 44.9102 34.6315L44.9101 34.6317L44.8434 34.7207C44.7849 34.7989 44.6986 34.9144 44.5875 35.0639C44.3654 35.3629 44.0438 35.7979 43.6456 36.3425C42.8493 37.4317 41.7465 38.9599 40.5198 40.7165C38.0695 44.2252 35.1137 48.6612 33.1238 52.3313C31.3147 55.668 29.3643 60.1046 27.8699 63.6961C27.1218 65.4942 26.4862 67.0846 26.0376 68.2256C25.8133 68.7961 25.6357 69.2544 25.5141 69.5703C25.4533 69.7282 25.4064 69.8505 25.3748 69.9335L25.3406 70.0233C25.1651 70.3181 24.8465 70.5 24.5 70.5C24.1534 70.5 23.8349 70.3181 23.6593 70.0233L23.6252 69.9335C23.5935 69.8506 23.5468 69.7283 23.486 69.5705C23.3644 69.2547 23.1869 68.7965 22.9627 68.2262C22.5143 67.0855 21.8791 65.4957 21.1313 63.6982C19.6376 60.1078 17.6882 55.6727 15.8797 52.3371C13.8906 48.6682 10.9357 44.2336 8.48606 40.726C7.25974 38.9701 6.15719 37.4424 5.36116 36.3536C4.96311 35.8091 4.64161 35.3743 4.41949 35.0754C4.30843 34.9259 4.22221 34.8105 4.16368 34.7323L4.09701 34.6433L4.09688 34.6431C2.28597 31.2794 1.33325 27.4891 1.33325 23.6667ZM29.9334 29.7749C30.014 29.7969 30.0762 29.8169 30.1228 29.8334C30.1478 29.8502 30.1718 29.8652 30.1945 29.8785C30.2274 29.8977 30.2629 29.9163 30.2993 29.9319L30.3013 29.9327C30.32 29.9408 30.402 29.9763 30.504 29.9802C30.5347 29.9814 30.6052 29.9817 30.6884 29.9532C30.7786 29.9222 30.9264 29.8393 30.9956 29.6547C31.0589 29.4862 31.0135 29.3434 30.9886 29.2839C30.9616 29.2194 30.9272 29.1752 30.9099 29.1544C30.8519 29.0846 30.7843 29.0427 30.7655 29.031L30.7641 29.0302C30.7242 29.0053 30.6748 28.9796 30.616 28.9536C30.3332 28.7146 29.5 27.7592 29.5 25C29.5 23.414 29.7013 22.2961 29.9011 21.5114C29.988 21.1702 30.0747 20.8912 30.1491 20.6517C30.161 20.6134 30.1726 20.5762 30.1838 20.5399C30.2568 20.3034 30.3381 20.0394 30.3437 19.8159C30.3469 19.69 30.329 19.532 30.2405 19.3791C30.1485 19.2202 30.0123 19.1216 29.8773 19.0622C29.6461 18.9604 29.345 18.9447 29.0526 18.9419C28.7916 18.9393 28.459 18.9492 28.0548 18.9612C27.97 18.9637 27.8821 18.9663 27.791 18.9689C27.2595 18.9841 26.603 19 25.7942 19L25.6365 19C24.1252 18.9999 23.1332 18.9998 22.5477 19.1061C22.2517 19.1599 21.9213 19.2613 21.713 19.5295C21.4865 19.8211 21.5129 20.1612 21.5637 20.4051C21.6193 20.6725 21.727 20.9673 21.8549 21.3175C22.2048 22.2752 22.7057 23.6465 22.7057 26C22.7057 27.5965 22.5387 28.556 22.3974 29.0945C22.3272 29.3622 22.262 29.531 22.2223 29.6292C22.2206 29.6335 22.2183 29.6391 22.2155 29.6457C22.2008 29.6813 22.1742 29.746 22.1611 29.7913C22.1561 29.8085 22.1438 29.8528 22.14 29.9092C22.1378 29.9435 22.1263 30.1178 22.2608 30.2746C22.4255 30.4667 22.6441 30.4568 22.7227 30.4446C22.8018 30.4323 22.8599 30.4037 22.8773 30.3952C22.9376 30.3654 22.9881 30.3314 23.0458 30.2925C23.1839 30.1994 23.3634 30.0783 23.8177 29.9214C24.4174 29.7143 25.4135 29.5 27 29.5C28.6022 29.5 29.4957 29.6553 29.9334 29.7749Z" fill="url(#paint0_linear)" stroke="url(#paint1_linear)"/>
<circle cx="24.5" cy="23.5" r="9.5" fill="url(#paint2_linear)"/>
<defs>
<linearGradient id="paint0_linear" x1="33.4098" y1="40.825" x2="6.07283" y2="7.40347" gradientUnits="userSpaceOnUse">
<stop stop-color="#C42C2C"/>
<stop offset="1" stop-color="#E74E4E"/>
</linearGradient>
<linearGradient id="paint1_linear" x1="7.95315" y1="-8.43338e-07" x2="41.8674" y2="51.8816" gradientUnits="userSpaceOnUse">
<stop stop-color="#F5B8B8"/>
<stop offset="1" stop-color="#F5B8B8" stop-opacity="0"/>
</linearGradient>
<linearGradient id="paint2_linear" x1="22.5" y1="20.5" x2="33" y2="38.5" gradientUnits="userSpaceOnUse">
<stop stop-color="#AE2727"/>
<stop offset="1" stop-color="#801C1C"/>
</linearGradient>
</defs>
</svg>
